OpenSim_Sub06_CSBaseline_RCS.mot
version=1
nRows=27
nColumns=11
inDegrees=no
endheader
time	Top_Thigh	Med_Thigh	Bot_Thigh	Top_Shank	2nd_Top_Shank	2nd_Bot_Shank	Bot_Shank	BNOx	BNOy	BNOZ
63.69000000	1717.44325757	2062.04272528	1711.69953640	1216.28789993	1303.19854902	933.91479072	1003.17227008	99.85973341	-64.10954928	93.12010395
63.70000000	1718.42085927	2061.84110065	1712.06935735	1223.22270795	1309.29447597	933.61849888	1001.31849842	101.35615416	-63.29144777	89.56780055
63.71000000	1719.61273891	2061.04950906	1711.79302161	1225.90968016	1314.26231125	931.34880708	999.97542322	102.89069379	-62.48523543	85.62153187
63.72000000	1720.96757118	2059.85772520	1710.92295979	1225.47664335	1318.39599190	927.79479159	999.18515218	104.39824063	-61.74724323	81.81662884
63.73000000	1722.43952641	2058.46969307	1709.52010204	1223.14822492	1322.02488652	923.70093888	998.99462123	105.81084970	-61.13566025	78.71510217
63.74000000	1723.98277493	2057.08935666	1707.64537849	1220.14905227	1325.47836373	919.81173544	999.45076635	107.06057602	-60.70867554	76.87896257
63.75000000	1725.55148708	2055.92065995	1705.35971928	1217.70375283	1329.08579211	916.87166774	1000.60052347	108.07947461	-60.52447818	76.87022076
63.76000000	1727.09983318	2055.16754694	1702.72405455	1217.03695400	1333.17654027	915.62522225	1002.49082856	108.79960049	-60.64125724	79.25088745
63.77000000	1728.58160534	2055.02960393	1699.79854672	1219.34887487	1338.07130756	916.80064982	1005.16501410	109.15406112	-61.11566596	84.55898386
63.78000000	1729.93589197	2055.53701265	1696.61351341	1224.89086115	1343.75377613	920.49504061	1008.52632758	109.11687768	-61.94465310	92.39993963
63.79000000	1731.08268083	2056.49989227	1693.16050273	1232.68163846	1349.76983090	925.98558480	1012.29604114	108.71521971	-63.04760910	101.16771495
63.80000000	1731.94068320	2057.71365481	1689.42847180	1241.65755432	1355.63609804	932.49467727	1016.18326518	107.97980876	-64.33874107	109.17530544
63.81000000	1732.42861033	2058.97371229	1685.40637772	1250.75495629	1360.86920374	939.24471290	1019.89711012	106.94136635	-65.73225612	114.73570676
63.82000000	1732.46517347	2060.07547674	1681.08317758	1258.91019191	1364.98577417	945.45808655	1023.14668638	105.63061403	-67.14236136	116.16191454
63.83000000	1731.96908387	2060.81436016	1676.44782849	1265.05960872	1367.50243552	950.35719310	1025.64110437	104.07827334	-68.48326388	111.76692442
63.84000000	1730.85908392	2060.98580974	1671.48931201	1268.13986276	1367.93598029	953.16463870	1027.08957418	102.31505528	-69.66918341	99.86433089
63.85000000	1729.09521546	2060.43192455	1666.22906560	1267.49700754	1366.02391765	953.38337882	1027.33357277	100.35771007	-70.63107856	79.56240103
63.86000000	1726.76023609	2059.13342345	1660.78496503	1263.69356534	1362.15958630	951.34938887	1026.60759016	98.18150525	-71.34964530	52.33066343
63.87000000	1723.95959165	2057.09665397	1655.29271604	1257.51696479	1356.85757773	947.55265680	1025.21877841	95.75403885	-71.81477528	20.07520758
63.88000000	1720.79872799	2054.32796362	1649.88802433	1249.75463453	1350.63248342	942.48317057	1023.47428959	93.04290891	-72.01636014	-15.29787701
63.89000000	1717.38309097	2050.83369993	1644.70659564	1241.19400320	1343.99889485	936.63091815	1021.68127577	90.01571347	-71.94429152	-51.88250086
63.90000000	1713.81812642	2046.62021043	1639.88413570	1232.62249943	1337.47140351	930.48588750	1020.14688901	86.64005056	-71.58846105	-87.77257447
63.91000000	1710.20928020	2041.69384262	1635.55635023	1224.82755187	1331.56460089	924.53806657	1019.17828140	82.88351823	-70.93876040	-121.06200834
63.92000000	1706.66199815	2036.06094404	1631.85894495	1218.59658915	1326.79307847	919.27744334	1019.08260500	78.71371450	-69.98508118	-149.84471299
63.93000000	1703.28172613	2029.72786220	1628.92762560	1214.71703991	1323.67142773	915.19400575	1020.16701187	74.09823741	-68.71731506	-172.21459892
63.94000000	1700.18329263	2022.72133620	1626.89345905	1213.90597038	1322.67040658	912.74908759	1022.70817456	69.01633497	-67.12971056	-186.39416380
63.95000000	1697.62191827	2015.37322331	1625.81810121	1215.82761676	1323.60489265	911.97527119	1026.52670152	63.62157307	-65.28170831	-192.52995047
